<?xml version="1.0" encoding="UTF-8" standalone="no"?>
<svg
   xmlns:dc="http://purl.org/dc/elements/1.1/"
   xmlns:cc="http://creativecommons.org/ns#"
   xmlns:rdf="http://www.w3.org/1999/02/22-rdf-syntax-ns#"
   xmlns:svg="http://www.w3.org/2000/svg"
   xmlns="http://www.w3.org/2000/svg"
   xmlns:sodipodi="http://sodipodi.sourceforge.net/DTD/sodipodi-0.dtd"
   xmlns:inkscape="http://www.inkscape.org/namespaces/inkscape"
   version="1.0"
   width="1600pt"
   height="1160pt"
   viewBox="0 0 1600 1160"
   preserveAspectRatio="xMidYMid meet"
   id="svg3859"
   sodipodi:docname="logo-white.svg"
   inkscape:version="0.92.3 (2405546, 2018-03-11)">
  <defs
     id="defs3863" />
  <sodipodi:namedview
     pagecolor="#ffffff"
     bordercolor="#666666"
     borderopacity="1"
     objecttolerance="10"
     gridtolerance="10"
     guidetolerance="10"
     inkscape:pageopacity="0"
     inkscape:pageshadow="2"
     inkscape:window-width="1920"
     inkscape:window-height="1017"
     id="namedview3861"
     showgrid="false"
     inkscape:zoom="0.32925168"
     inkscape:cx="2229.1466"
     inkscape:cy="1074.1981"
     inkscape:window-x="-8"
     inkscape:window-y="-8"
     inkscape:window-maximized="1"
     inkscape:current-layer="svg3859" />
  <metadata
     id="metadata3789">
Created by potrace 1.12, written by Peter Selinger 2001-2015
<rdf:RDF>
  <cc:Work
     rdf:about="">
    <dc:format>image/svg+xml</dc:format>
    <dc:type
       rdf:resource="http://purl.org/dc/dcmitype/StillImage" />
    <dc:title></dc:title>
  </cc:Work>
</rdf:RDF>
</metadata>
  <g
     transform="matrix(0.1,0,0,-0.1,-109.85329,1362.5208)"
     id="g3857"
     style="fill:#ffffff;fill-opacity:1;stroke:none">
    <path
       d="m 2210,13385 v -205 l 205,-410 205,-410 h 1230 1230 l 830,-415 830,-415 v -205 -205 h 410 410 l 410,205 410,205 h 622 623 l 750,-750 750,-750 h 482 483 v 130 130 h -323 -322 l -825,825 -825,825 h -753 -752 l -410,-205 -410,-205 h -160 -160 v 128 127 l -967,485 -968,485 -1170,5 -1170,5 -102,200 c -56,110 -102,203 -103,208 0,4 952,7 2115,7 h 2115 l 205,-410 205,-410 h 2512 2513 l 497,-497 498,-498 v 622 621 l 243,-80 c 133,-44 247,-86 253,-92 14,-13 638,-1885 632,-1892 -5,-4 -688,93 -693,98 -2,2 -81,160 -178,353 l -175,350 -176,-352 c -171,-343 -176,-352 -208,-358 -18,-3 -190,-28 -383,-56 -192,-28 -352,-52 -354,-54 -3,-4 147,-152 500,-495 l 57,-55 -64,-365 c -35,-201 -63,-375 -62,-387 3,-20 33,-6 343,157 187,99 345,179 350,179 6,0 163,-80 350,-178 187,-99 341,-178 343,-176 2,1 -26,175 -63,385 l -65,382 236,232 c 261,255 272,264 279,244 3,-7 31,-89 62,-183 l 58,-170 559,-744 559,-745 -198,-396 c -133,-266 -196,-403 -192,-414 4,-10 295,-498 647,-1084 l 640,-1067 v -730 -730 l -205,-615 -205,-615 v -155 -155 l -88,-88 -87,-87 h -220 -220 l -119,180 -119,180 h -244 c -193,0 -243,-3 -237,-12 4,-7 119,-181 256,-385 l 248,-373 h 413 412 l 203,203 202,202 v 200 200 l 210,630 210,630 v 817 816 l -619,1033 -620,1032 206,411 206,412 -618,824 -618,824 -412,1235 -411,1235 -610,203 c -335,112 -612,203 -616,203 -5,0 -8,-183 -8,-407 v -408 l -203,203 -202,202 -2475,2 -2475,3 -208,413 -207,412 H 4680 2210 Z"
       id="path3791"
       style="fill:#ffffff;fill-opacity:1"
       inkscape:connector-curvature="0" />
    <path
       d="M 1350,7215 V 5410 h 265 265 v 724 723 l 88,6 c 359,23 642,232 762,564 56,157 73,265 74,488 1,200 -3,261 -24,365 -64,308 -210,521 -439,639 -172,88 -257,101 -668,101 h -323 z m 685,1249 c 175,-42 234,-162 239,-489 2,-99 0,-212 -5,-252 -17,-158 -71,-250 -168,-292 -47,-20 -74,-25 -178,-35 l -43,-3 v 547 548 l 48,-5 c 26,-3 74,-11 107,-19 z"
       id="path3793"
       style="fill:#ffffff;fill-opacity:1"
       inkscape:connector-curvature="0" />
    <path
       d="M 3080,7215 V 5410 h 245 245 v 1059 1059 l 33,43 c 51,66 80,84 142,84 62,0 90,-19 105,-74 6,-23 10,-423 10,-1103 V 5410 h 245 245 v 1123 c 0,717 -4,1145 -10,1187 -30,187 -105,318 -217,377 -150,79 -268,44 -457,-137 -46,-44 -86,-80 -90,-80 -3,0 -6,257 -6,570 v 570 h -245 -245 z"
       id="path3795"
       style="fill:#ffffff;fill-opacity:1"
       inkscape:connector-curvature="0" />
    <path
       d="m 4740,8775 v -245 h 245 245 v 245 245 h -245 -245 z"
       id="path3797"
       style="fill:#ffffff;fill-opacity:1"
       inkscape:connector-curvature="0" />
    <path
       d="M 5630,7215 V 5410 h 245 245 v 1805 1805 h -245 -245 z"
       id="path3799"
       style="fill:#ffffff;fill-opacity:1"
       inkscape:connector-curvature="0" />
    <path
       d="M 7280,7216 V 5409 l 293,2 c 423,3 587,27 756,110 248,122 355,361 402,894 13,156 20,1251 9,1450 -46,795 -191,1039 -670,1131 -65,12 -169,17 -437,21 l -353,5 z m 692,1263 c 130,-29 192,-144 215,-402 5,-45 8,-446 8,-892 0,-714 -2,-822 -17,-911 -41,-241 -108,-319 -289,-331 l -79,-6 v 1280 1279 l 58,-3 c 31,-2 78,-9 104,-14 z"
       id="path3801"
       style="fill:#ffffff;fill-opacity:1"
       inkscape:connector-curvature="0" />
    <path
       d="m 11430,8475 c 0,-300 -3,-545 -6,-545 -4,0 -30,20 -58,44 -129,110 -238,161 -346,160 -170,-1 -299,-135 -355,-369 -12,-50 -14,-223 -14,-1010 0,-1051 -2,-1015 65,-1152 74,-154 175,-226 314,-227 69,-1 84,3 154,38 43,21 114,67 157,102 44,35 82,64 84,64 3,0 5,-38 5,-85 v -85 h 245 245 v 1805 1805 h -245 -245 z m -65,-848 c 27,-26 47,-58 54,-84 8,-30 11,-266 9,-815 -3,-759 -3,-774 -24,-808 -63,-108 -195,-106 -245,4 -18,39 -19,82 -19,828 0,702 2,792 16,828 23,57 68,90 123,90 38,0 49,-5 86,-43 z"
       id="path3803"
       style="fill:#ffffff;fill-opacity:1"
       inkscape:connector-curvature="0" />
    <path
       d="m 13080,8475 c 0,-300 -3,-545 -6,-545 -4,0 -30,20 -58,44 -129,110 -238,161 -346,160 -170,-1 -299,-135 -355,-369 -12,-50 -14,-223 -14,-1010 0,-1051 -2,-1015 65,-1152 74,-154 175,-226 314,-227 69,-1 84,3 154,38 43,21 114,67 157,102 44,35 82,64 84,64 3,0 5,-38 5,-85 v -85 h 245 245 v 1805 1805 h -245 -245 z m -65,-848 c 27,-26 47,-58 54,-84 8,-30 11,-266 9,-815 -3,-759 -3,-774 -24,-808 -63,-108 -195,-106 -245,4 -18,39 -19,82 -19,828 0,702 2,792 16,828 23,57 68,90 123,90 38,0 49,-5 86,-43 z"
       id="path3805"
       style="fill:#ffffff;fill-opacity:1"
       inkscape:connector-curvature="0" />
    <path
       d="m 9542,8125 c -108,-20 -175,-56 -262,-144 -60,-61 -85,-95 -122,-171 -95,-195 -100,-253 -96,-1130 4,-698 4,-706 27,-795 55,-217 164,-371 315,-446 178,-88 428,-89 598,-3 114,58 233,207 281,353 50,150 53,205 51,1001 -1,778 -2,783 -49,926 -70,207 -225,356 -420,404 -73,18 -239,20 -323,5 z m 223,-434 c 30,-13 48,-31 70,-72 l 30,-54 v -805 -805 l -25,-50 c -36,-72 -79,-98 -154,-93 -52,4 -63,8 -92,40 -65,71 -64,59 -64,908 0,688 2,771 17,816 23,70 42,94 88,115 50,23 80,23 130,0 z"
       id="path3807"
       style="fill:#ffffff;fill-opacity:1"
       inkscape:connector-curvature="0" />
    <path
       d="m 14420,8123 c -301,-58 -471,-310 -472,-698 0,-144 15,-229 59,-329 68,-154 130,-233 384,-492 279,-284 335,-373 333,-524 -4,-199 -63,-296 -180,-294 -43,0 -62,6 -96,30 -73,51 -128,192 -128,328 v 46 h -230 -230 v -38 c 0,-140 38,-308 97,-432 80,-167 218,-279 403,-327 82,-21 273,-23 350,-4 222,56 371,210 442,457 20,68 23,102 23,249 0,159 -2,175 -28,248 -70,200 -144,304 -402,567 -320,326 -366,410 -335,607 15,97 45,161 89,190 43,29 75,29 125,0 60,-33 87,-95 94,-207 l 5,-90 h 230 230 l -6,98 c -20,304 -104,470 -286,561 -121,61 -319,84 -471,54 z"
       id="path3809"
       style="fill:#ffffff;fill-opacity:1"
       inkscape:connector-curvature="0" />
    <path
       d="M 4740,6755 V 5410 h 245 245 v 1345 1345 h -245 -245 z"
       id="path3811"
       style="fill:#ffffff;fill-opacity:1"
       inkscape:connector-curvature="0" />
    <path
       d="m 1140,5005 v -135 h 7070 7070 v 135 135 H 8210 1140 Z"
       id="path3813"
       style="fill:#ffffff;fill-opacity:1"
       inkscape:connector-curvature="0" />
    <path
       d="m 10905,4245 c -14,-13 -25,-33 -25,-45 0,-26 43,-70 68,-70 33,0 72,38 72,70 0,32 -39,70 -72,70 -10,0 -30,-11 -43,-25 z"
       id="path3815"
       style="fill:#ffffff;fill-opacity:1"
       inkscape:connector-curvature="0" />
    <path
       d="m 12765,4245 c -14,-13 -25,-33 -25,-45 0,-26 43,-70 68,-70 33,0 72,38 72,70 0,32 -39,70 -72,70 -10,0 -30,-11 -43,-25 z"
       id="path3817"
       style="fill:#ffffff;fill-opacity:1"
       inkscape:connector-curvature="0" />
    <path
       d="m 2338,4227 c -64,-19 -123,-59 -155,-108 -22,-33 -28,-56 -31,-108 -6,-126 49,-186 255,-278 65,-29 132,-62 150,-73 41,-25 65,-71 65,-126 0,-95 -75,-157 -191,-157 -83,-1 -151,22 -217,72 l -52,39 -32,-33 -31,-32 32,-27 c 50,-43 139,-83 210,-96 238,-43 421,105 379,307 -18,85 -59,123 -210,194 -191,90 -213,103 -238,140 -19,27 -23,43 -19,82 7,84 71,130 177,130 71,0 123,-18 179,-60 l 34,-26 24,27 c 29,35 27,44 -23,78 -82,57 -215,80 -306,55 z"
       id="path3819"
       style="fill:#ffffff;fill-opacity:1"
       inkscape:connector-curvature="0" />
    <path
       d="m 4340,4225 c -129,-36 -226,-143 -265,-292 -20,-77 -20,-250 0,-327 36,-135 112,-233 219,-283 53,-24 73,-28 152,-27 82,0 97,3 157,32 147,73 227,228 227,440 -1,211 -85,370 -234,438 -69,32 -180,40 -256,19 z m 217,-96 c 143,-68 211,-312 147,-529 -47,-160 -172,-248 -311,-220 -134,28 -219,155 -230,347 -9,149 22,264 93,343 79,88 193,110 301,59 z"
       id="path3821"
       style="fill:#ffffff;fill-opacity:1"
       inkscape:connector-curvature="0" />
    <path
       d="m 6108,4227 c -64,-19 -123,-59 -155,-108 -22,-33 -28,-56 -31,-108 -6,-126 49,-186 255,-278 65,-29 132,-62 150,-73 41,-25 65,-71 65,-126 0,-95 -75,-157 -191,-157 -83,-1 -151,22 -217,72 l -52,39 -32,-33 -31,-32 32,-27 c 50,-43 139,-83 210,-96 238,-43 421,105 379,307 -18,85 -59,123 -210,194 -191,90 -213,103 -238,140 -19,27 -23,43 -19,82 7,84 71,130 177,130 71,0 123,-18 179,-60 l 34,-26 24,27 c 29,35 27,44 -23,78 -82,57 -215,80 -306,55 z"
       id="path3823"
       style="fill:#ffffff;fill-opacity:1"
       inkscape:connector-curvature="0" />
    <path
       d="m 1270,3912 c 0,-352 6,-405 54,-484 39,-65 94,-103 176,-124 120,-30 244,-1 321,76 83,83 99,176 99,588 v 262 h -49 -50 l -3,-337 -3,-338 -28,-58 c -66,-134 -240,-166 -343,-63 -69,69 -74,98 -74,473 v 323 h -50 -50 z"
       id="path3825"
       style="fill:#ffffff;fill-opacity:1"
       inkscape:connector-curvature="0" />
    <path
       d="m 3200,3765 v -465 h 50 50 l 2,223 3,222 223,3 222,2 v -225 -225 h 50 50 v 465 465 h -50 -50 v -200 -200 h -225 -225 v 200 200 h -50 -50 z"
       id="path3827"
       style="fill:#ffffff;fill-opacity:1"
       inkscape:connector-curvature="0" />
    <path
       d="m 5030,3912 c 0,-352 6,-405 54,-484 39,-65 94,-103 176,-124 120,-30 244,-1 321,76 83,83 99,176 99,588 v 262 h -49 -50 l -3,-337 -3,-338 -28,-58 c -66,-134 -240,-166 -343,-63 -69,69 -74,98 -74,473 v 323 h -50 -50 z"
       id="path3829"
       style="fill:#ffffff;fill-opacity:1"
       inkscape:connector-curvature="0" />
    <path
       d="m 6680,3765 v -465 h 265 265 v 40 40 l -212,2 -213,3 v 180 180 l 173,3 172,2 v 40 40 h -175 -176 l 3,158 3,157 208,3 207,2 v 40 40 h -260 -260 z"
       id="path3831"
       style="fill:#ffffff;fill-opacity:1"
       inkscape:connector-curvature="0" />
    <path
       d="m 8410,3765 v -465 h 50 50 l 2,213 3,212 178,3 177,2 v 40 40 h -180 -180 l 2,168 3,167 208,3 207,2 v 40 40 h -260 -260 z"
       id="path3833"
       style="fill:#ffffff;fill-opacity:1"
       inkscape:connector-curvature="0" />
    <path
       d="m 9100,3765 v -465 h 255 255 v 40 40 l -202,2 -203,3 -3,423 -2,422 h -50 -50 z"
       id="path3835"
       style="fill:#ffffff;fill-opacity:1"
       inkscape:connector-curvature="0" />
    <path
       d="m 10050,3766 v -466 h 138 c 214,0 311,29 398,118 44,45 89,135 105,211 17,84 7,273 -19,344 -42,116 -124,198 -235,233 -36,12 -104,18 -219,21 l -168,5 z m 355,357 c 67,-22 135,-92 166,-169 19,-50 23,-77 24,-179 0,-195 -47,-295 -167,-354 -58,-29 -74,-32 -168,-34 l -105,-2 -3,370 c -1,203 0,376 3,384 7,19 181,8 250,-16 z"
       id="path3837"
       style="fill:#ffffff;fill-opacity:1"
       inkscape:connector-curvature="0" />
    <path
       d="m 14599,4211 c -57,-18 -149,-76 -149,-94 0,-5 11,-22 24,-38 23,-27 25,-27 40,-10 9,10 39,30 67,46 97,52 208,33 253,-45 27,-45 25,-118 -3,-164 -24,-38 -108,-86 -152,-86 -14,0 -41,-3 -58,-6 -28,-6 -31,-10 -31,-45 v -39 h 43 c 53,0 149,-24 183,-46 102,-67 93,-224 -16,-284 -87,-47 -217,-26 -302,49 l -36,31 -27,-32 -27,-32 37,-33 c 162,-140 432,-114 516,49 48,94 29,210 -44,274 -23,20 -62,44 -87,54 l -44,17 40,21 c 118,60 162,195 102,315 -32,65 -142,118 -241,116 -18,0 -57,-8 -88,-18 z"
       id="path3839"
       style="fill:#ffffff;fill-opacity:1"
       inkscape:connector-curvature="0" />
    <path
       d="m 11856,4164 c -3,-9 -6,-46 -6,-84 0,-95 -3,-100 -61,-100 h -49 v -40 -40 h 49 50 l 3,-242 c 3,-230 4,-245 26,-285 36,-69 112,-95 217,-73 l 57,12 -5,35 c -4,20 -8,37 -9,39 -2,1 -21,-1 -43,-6 -52,-12 -89,-3 -117,27 -23,24 -23,30 -26,259 l -3,234 h 90 91 v 40 40 h -90 -90 v 100 100 h -39 c -26,0 -41,-5 -45,-16 z"
       id="path3841"
       style="fill:#ffffff;fill-opacity:1"
       inkscape:connector-curvature="0" />
    <path
       d="m 13776,4164 c -3,-9 -6,-46 -6,-84 0,-95 -3,-100 -61,-100 h -49 v -40 -40 h 49 50 l 3,-242 c 3,-230 4,-245 26,-285 36,-69 112,-95 217,-73 l 57,12 -5,35 c -4,20 -8,37 -9,39 -2,1 -21,-1 -43,-6 -52,-12 -89,-3 -117,27 -23,24 -23,30 -26,259 l -3,234 h 90 91 v 40 40 h -90 -90 v 100 100 h -39 c -26,0 -41,-5 -45,-16 z"
       id="path3843"
       style="fill:#ffffff;fill-opacity:1"
       inkscape:connector-curvature="0" />
    <path
       d="m 11339,3977 c -91,-26 -141,-86 -141,-172 0,-86 45,-128 198,-186 108,-40 152,-71 159,-113 8,-41 -9,-81 -47,-109 -21,-16 -43,-21 -93,-21 -55,0 -76,6 -135,36 l -70,36 -20,-26 c -11,-14 -19,-30 -17,-36 7,-20 94,-66 157,-82 131,-33 259,8 307,99 16,33 19,110 5,147 -18,46 -67,80 -183,126 -156,62 -191,102 -154,173 31,61 137,73 225,25 l 51,-28 24,30 c 28,35 23,44 -49,79 -62,30 -154,40 -217,22 z"
       id="path3845"
       style="fill:#ffffff;fill-opacity:1"
       inkscape:connector-curvature="0" />
    <path
       d="m 12527,3980 c -41,-12 -92,-54 -118,-97 -25,-41 -25,-41 -34,40 l -6,57 h -40 -39 v -340 -340 h 50 50 v 223 222 l 30,52 c 42,73 81,98 152,98 h 58 l 8,40 c 6,32 5,41 -7,47 -22,9 -70,8 -104,-2 z"
       id="path3847"
       style="fill:#ffffff;fill-opacity:1"
       inkscape:connector-curvature="0" />
    <path
       d="m 13273,3972 c -157,-56 -230,-176 -221,-361 5,-102 27,-159 87,-224 102,-111 295,-124 416,-29 l 23,18 -20,32 -20,31 -38,-24 c -160,-101 -331,-3 -347,198 -18,218 174,366 330,255 l 29,-21 25,26 c 15,14 23,32 20,40 -3,8 -30,27 -61,42 -73,36 -154,42 -223,17 z"
       id="path3849"
       style="fill:#ffffff;fill-opacity:1"
       inkscape:connector-curvature="0" />
    <path
       d="m 10900,3640 v -340 h 50 50 v 340 340 h -50 -50 z"
       id="path3851"
       style="fill:#ffffff;fill-opacity:1"
       inkscape:connector-curvature="0" />
    <path
       d="m 12760,3640 v -340 h 50 50 v 340 340 h -50 -50 z"
       id="path3853"
       style="fill:#ffffff;fill-opacity:1"
       inkscape:connector-curvature="0" />
    <path
       d="m 7630,3650 v -40 h 155 155 v 40 40 h -155 -155 z"
       id="path3855"
       style="fill:#ffffff;fill-opacity:1"
       inkscape:connector-curvature="0" />
  </g>
</svg>
