<svg id="Layer_1" data-name="Layer 1" xmlns="http://www.w3.org/2000/svg" xmlns:xlink="http://www.w3.org/1999/xlink" viewBox="0 0 422.61 488.07"><defs><style>.cls-1{fill:none;}.cls-2{clip-path:url(#clip-path);}.cls-3{fill:#2a4f76;stroke:#2a4f76;stroke-width:1.25px;}</style><clipPath id="clip-path" transform="translate(-3.57 -8.01)"><rect class="cls-1" x="2.15" y="2.5" width="425.45" height="495"/></clipPath></defs><title>money</title><g class="cls-2"><path class="cls-3" d="M231,315.39h-28.2a18.31,18.31,0,1,1,0-36.62h49.64a12.14,12.14,0,1,0,0-24.28H229.18v-16.9a12.31,12.31,0,0,0-24.61,0v16.9h-1.74c-23.79,0-43.17,19.12-43.17,42.59s19.38,42.59,43.17,42.59H231a18.31,18.31,0,1,1,0,36.62H180.47a12.14,12.14,0,1,0,0,24.28h24.2v17.3a12.31,12.31,0,0,0,24.61,0v-17.3h2.36c23.59-.3,42.56-19.32,42.56-42.59C274.19,334.51,254.81,315.39,231,315.39Z" transform="translate(-3.57 -8.01)"/><path class="cls-3" d="M401.29,286.66a347.69,347.69,0,0,0-53-84.41,394.11,394.11,0,0,0-67.91-64.07l52-95.74a11.91,11.91,0,0,0-2.24-14.37C316.65,15,302.37,8.64,286.46,8.64c-14.58,0-27.94,5.47-39.57,10.32-9.18,3.75-17.84,7.39-24.88,7.39a15.61,15.61,0,0,1-5.81-1c-24.27-8.8-42.93-14.27-61-14.27-22.84,0-42.32,9.11-61.39,28.54A12.16,12.16,0,0,0,92.4,54.79l56.09,84.1a400.26,400.26,0,0,0-67,63.36c-22.33,26.62-40.18,55.06-53,84.41A285.14,285.14,0,0,0,4.19,401.23c0,51.92,42.63,94.23,94.94,94.23H330.62c52.31,0,94.94-42.3,94.94-94.23A285.14,285.14,0,0,0,401.29,286.66ZM118.51,49.73c11.83-10.13,23.15-14.58,36.71-14.58C169.7,35.15,186,40,207.74,48a41.72,41.72,0,0,0,14.17,2.43c11.93,0,23.35-4.66,34.27-9.21,10.5-4.35,20.5-8.5,30.18-8.5,4.69,0,11.32.81,19.68,6.68l-48.95,90.28H171.84ZM330.62,471.16H99.13c-38.85,0-70.46-31.37-70.46-69.93,0-64.87,24-126.41,71.08-182.88A373.11,373.11,0,0,1,169,154h91.57c9.28,6.38,39.46,28.64,69.24,64.37,47.22,56.47,71.08,117.91,71.08,182.88C401.08,439.79,369.47,471.16,330.62,471.16Z" transform="translate(-3.57 -8.01)"/></g></svg>