<svg width="104" height="121" xmlns="http://www.w3.org/2000/svg" xmlns:xlink="http://www.w3.org/1999/xlink" overflow="hidden"><defs><clipPath id="clip0"><path d="M198 298 302 298 302 419 198 419Z" fill-rule="evenodd" clip-rule="evenodd"/></clipPath></defs><g clip-path="url(#clip0)" transform="translate(-198 -298)"><path d="M253.947 374.483 247.053 374.483C244.547 374.483 242.516 372.48 242.516 370.007 242.516 367.535 244.547 365.532 247.053 365.532L259.186 365.532C260.84 365.532 262.194 364.196 262.194 362.564 262.194 360.932 260.84 359.597 259.186 359.597L253.496 359.597 253.496 355.467C253.496 353.835 252.142 352.5 250.488 352.5 248.833 352.5 247.479 353.835 247.479 355.467L247.479 359.597 247.053 359.597C241.238 359.597 236.5 364.271 236.5 370.007 236.5 375.744 241.238 380.418 247.053 380.418L253.947 380.418C256.453 380.418 258.484 382.421 258.484 384.894 258.484 387.367 256.453 389.37 253.947 389.37L241.589 389.37C239.934 389.37 238.581 390.705 238.581 392.337 238.581 393.969 239.934 395.304 241.589 395.304L247.505 395.304 247.505 399.533C247.505 401.165 248.858 402.5 250.513 402.5 252.167 402.5 253.521 401.165 253.521 399.533L253.521 395.304 254.022 395.304C254.047 395.304 254.072 395.304 254.097 395.304 259.863 395.23 264.5 390.581 264.5 384.894 264.5 379.157 259.762 374.483 253.947 374.483Z" stroke="#4A6782" stroke-miterlimit="8" fill="#4A6782" fill-rule="evenodd"/><path d="M295.567 367.461C292.427 360.287 288.089 353.335 282.605 346.828 275.974 338.911 269.369 333.617 266.004 331.167L278.716 307.763C279.34 306.6 279.14 305.166 278.168 304.25 274.878 301.059 271.388 299.5 267.499 299.5 263.934 299.5 260.669 300.836 257.827 302.023 255.584 302.939 253.465 303.83 251.745 303.83 251.221 303.83 250.773 303.755 250.324 303.582 244.391 301.43 239.83 300.094 235.418 300.094 229.834 300.094 225.073 302.32 220.411 307.07 219.439 308.06 219.29 309.619 220.062 310.782L233.772 331.341C230.382 333.839 223.901 339.084 217.395 346.828 211.936 353.335 207.574 360.287 204.433 367.461 200.494 376.491 198.5 385.917 198.5 395.467 198.5 408.159 208.92 418.5 221.707 418.5L278.293 418.5C291.08 418.5 301.5 408.159 301.5 395.467 301.5 385.917 299.506 376.491 295.567 367.461ZM226.444 309.545C229.335 307.07 232.102 305.982 235.418 305.982 238.957 305.982 242.946 307.17 248.255 309.124 249.352 309.52 250.524 309.718 251.72 309.718 254.637 309.718 257.428 308.58 260.096 307.466 262.663 306.403 265.106 305.388 267.474 305.388 268.621 305.388 270.241 305.586 272.285 307.021L260.32 329.089 239.481 329.089 226.444 309.545ZM278.293 412.562 221.707 412.562C212.21 412.562 204.483 404.893 204.483 395.467 204.483 379.609 210.341 364.567 221.857 350.762 229.136 342.028 236.539 336.61 238.783 335.027L261.168 335.027C263.436 336.586 270.814 342.028 278.093 350.762 289.635 364.567 295.468 379.584 295.468 395.467 295.517 404.893 287.79 412.562 278.293 412.562Z" stroke="#4A6782" stroke-miterlimit="8" fill="#4A6782" fill-rule="evenodd"/></g></svg>