<?xml version="1.0" encoding="utf-8"?>
<!-- Generator: Adobe Illustrator 21.0.2, SVG Export Plug-In . SVG Version: 6.00 Build 0)  -->
<svg version="1.1" id="Layer_1" xmlns="http://www.w3.org/2000/svg" xmlns:xlink="http://www.w3.org/1999/xlink" x="0px" y="0px"
	 viewBox="0 0 900 500" style="enable-background:new 0 0 900 500;" xml:space="preserve">
<style type="text/css">
	.st0{fill:#2A4F76;}
</style>
<g>
	<g>
		<path class="st0" d="M729.5,492.5c-7.2,0-12.8-5.6-12.8-12.8s5.6-12.8,12.8-12.8h129.6v-33.5c0-6.1-2.5-11.6-7.2-15.5
			c-41-33.5-85.3-55.9-93.8-60.1c-5.3-2.6-8.9-8.3-8.9-14.2v-65.2c0-4.3,2.1-8.3,5.6-10.5c5-3.3,8-8.8,8-14.8v-67.7
			c0-26.5-21.6-48.1-48.1-48.1h-14.5c-26.5,0-48.1,21.6-48.1,48.1v67.7c0,6,3,11.5,8,14.8c3.4,2.3,5.6,6.3,5.6,10.5v31.2
			c0,7.2-5.6,12.8-12.8,12.8s-12.8-5.6-12.8-12.8v-25l-1.4-1.5c-7.9-8.2-12.2-18.9-12.2-30.1v-67.7c0-40.5,33-73.6,73.6-73.8h14.5
			c40.6,0,73.6,33,73.6,73.6v67.7c0,11.2-4.3,21.9-12.2,30.1l-1.4,1.5v53l2.7,1.4c19,10,56,31,90.5,59.2
			c10.6,8.7,16.7,21.5,16.7,35.3v46.3c0,7.2-5.6,12.8-12.8,12.8H729.5z"/>
		<path class="st0" d="M28.1,492.5c-7.2,0-12.8-5.6-12.8-12.8v-46.1c0-13.6,6.1-26.5,16.7-35.3c34.6-28.6,71.6-49.3,90.5-59.2
			l2.7-1.4v-53l-1.4-1.5c-7.9-8.2-12.2-18.9-12.2-30.1v-67.7c0-40.6,33-73.6,73.6-73.6h14.5c40.6,0,73.6,33,73.6,73.6v67.7
			c0,11.2-4.3,21.9-12.2,30.1l-1.4,1.5v26.4c0,7.2-5.6,12.8-12.8,12.8c-7.2,0-12.8-5.6-12.8-12.8v-32.7c0-4.3,2.1-8.3,5.6-10.5
			c5-3.3,8-8.8,8-14.8v-67.7c0-26.5-21.6-48.1-48.1-48.1h-14.5c-26.5,0-48.1,21.6-48.1,48.1v67.7c0,6,3,11.5,8,14.8
			c3.4,2.3,5.6,6.3,5.6,10.5v65.2c0,6.1-3.5,11.6-8.8,14.1c-0.5,0.2-48.8,23-93.8,60.1c-4.6,3.9-7.2,9.5-7.2,15.5V467h131.7
			c7.2,0,12.8,5.6,12.8,12.8s-5.6,12.8-12.8,12.8H28.1z"/>
		<path class="st0" d="M237.9,492.5c-7.2,0-12.8-5.6-12.8-12.8v-59.9c0-16.6,7.3-32.2,20.1-42.6c47.7-39.3,99.4-67.4,119.4-77.7
			l2.7-1.4v-72.5l-1.5-1.5c-10.4-10-16.1-23.4-16.1-37.7V99.1c0-50.5,41.1-91.6,91.6-91.6h18.8c50.5,0,91.6,41.1,91.6,91.6v87.4
			c0,14.3-5.9,28-16.2,37.6l-1.6,1.5v72.5l2.7,1.4c19.8,10.1,71,38,119.4,77.7c12.8,10.5,20.1,26,20.1,42.6v59.9
			c0,7.2-5.6,12.8-12.8,12.8H237.9z M441.5,33.2c-36.4,0-66,29.6-66,66v87.4c0,8.8,4.4,17.1,11.9,22.1c3.5,2.4,5.7,6.4,5.7,10.6
			v84.4c0,6.2-3.8,12.1-9.4,14.9c-11.1,5.5-69.2,34.9-122,78.3c-6.9,5.6-10.8,13.9-10.8,22.9V467h399.8v-47.2
			c0-9-3.9-17.3-10.8-22.9c-50.6-41.5-106-70.4-121.7-78.3c-5.8-2.8-9.4-8.7-9.4-14.9v-84.4c0-4.3,2.1-8.3,5.6-10.5
			c7.5-4.9,12-13.1,12-22.2V99.2c0-36.4-29.6-66-66-66H441.5z"/>
	</g>
</g>
</svg>
