<svg viewBox="0 0 489.9 489.9" xmlns="http://www.w3.org/2000/svg" xmlns:xlink="http://www.w3.org/1999/xlink" id="Layer_1" overflow="hidden"><g><g><path d="M340.6 209.05 340.6 246.75C340.6 253.85 343.4 260.45 348.2 265.45L348.2 278.25C348.2 283.75 352.6 288.15 358.1 288.15 363.6 288.15 368 283.75 368 278.25L368 260.85C368 257.55 366.3 254.45 363.6 252.65 361.6 251.35 360.4 249.15 360.4 246.75L360.4 209.05C360.4 195.85 371.2 185.05 384.4 185.05L392.5 185.05C405.7 185.05 416.5 195.85 416.5 209.05L416.5 246.75C416.5 249.15 415.3 251.35 413.3 252.65 410.5 254.45 408.9 257.55 408.9 260.85L408.9 297.15C408.9 301.55 411.5 305.65 415.4 307.55 420.1 309.85 444.5 322.15 467.1 340.65 469 342.25 470.1 344.55 470.1 347.15L470.1 363.05 400.7 363.05C395.2 363.05 390.8 367.45 390.8 372.95 390.8 378.45 395.2 382.85 400.7 382.85L480 382.85C485.5 382.85 489.9 378.45 489.9 372.95L489.9 347.15C489.9 338.65 486.2 330.75 479.6 325.35 459.7 309.05 438.4 297.15 428.7 292.05L428.7 265.35C433.5 260.35 436.3 253.75 436.3 246.65L436.3 208.95C436.3 184.75 416.6 165.15 392.5 165.15L384.4 165.15C360.3 165.25 340.6 184.85 340.6 209.05Z" stroke-width="1.0001" fill="#4A6782"/><path d="M9.9 382.85 90.4 382.85C95.9 382.85 100.3 378.45 100.3 372.95 100.3 367.45 95.9 363.05 90.4 363.05L19.8 363.05 19.8 347.15C19.8 344.65 20.9 342.25 22.8 340.65 45.3 322.15 69.8 309.75 74.5 307.55 78.5 305.65 81 301.55 81 297.15L81 260.85C81 257.55 79.3 254.45 76.6 252.65 74.6 251.35 73.4 249.15 73.4 246.75L73.4 209.05C73.4 195.85 84.2 185.05 97.4 185.05L105.5 185.05C118.7 185.05 129.5 195.85 129.5 209.05L129.5 246.75C129.5 249.15 128.3 251.35 126.3 252.65 123.5 254.45 121.9 257.55 121.9 260.85L121.9 279.05C121.9 284.55 126.3 288.95 131.8 288.95 137.3 288.95 141.7 284.55 141.7 279.05L141.7 265.45C146.5 260.45 149.3 253.85 149.3 246.75L149.3 209.05C149.3 184.85 129.6 165.25 105.5 165.25L97.4 165.25C73.2 165.25 53.6 184.95 53.6 209.05L53.6 246.75C53.6 253.85 56.4 260.45 61.2 265.45L61.2 292.15C51.4 297.25 30.2 309.05 10.3 325.45 3.8 330.85-3.55271e-15 338.75-3.55271e-15 347.25L-3.55271e-15 372.95C0 378.45 4.4 382.85 9.9 382.85Z" stroke-width="1.0001" fill="#4A6782"/><path d="M304.4 209.55 304.4 160.85C304.4 131.15 280.3 107.05 250.6 107.05L240.1 107.05C210.4 107.05 186.3 131.15 186.3 160.85L186.3 209.55C186.3 218.35 189.9 226.55 196.1 232.55L196.1 270.05C184.4 276.05 155.8 291.65 129.1 313.65 121.3 320.05 116.9 329.45 116.9 339.55L116.9 372.95C116.9 378.45 121.3 382.85 126.8 382.85L363.8 382.85C369.3 382.85 373.7 378.45 373.7 372.95L373.7 339.55C373.7 329.45 369.3 320.05 361.5 313.65 334.8 291.75 306.2 276.05 294.5 270.05L294.5 232.55C300.8 226.65 304.4 218.35 304.4 209.55ZM349 328.95C352.2 331.55 354 335.45 354 339.55L354 363.05 136.8 363.05 136.8 339.55C136.8 335.45 138.6 331.55 141.8 328.95 171.2 304.75 203.1 288.65 209.2 285.65 213.3 283.65 216 279.35 216 274.85L216 227.85C216 224.55 214.3 221.45 211.6 219.65 208.2 217.35 206.2 213.65 206.2 209.65L206.2 160.95C206.2 142.15 221.5 126.95 240.2 126.95L250.7 126.95C269.5 126.95 284.7 142.25 284.7 160.95L284.7 209.65C284.7 213.65 282.7 217.45 279.3 219.65 276.5 221.45 274.9 224.55 274.9 227.85L274.9 274.85C274.9 279.45 277.6 283.65 281.7 285.65 287.7 288.65 319.6 304.85 349 328.95Z" stroke-width="1.0001" fill="#4A6782"/></g></g><g></g><g></g><g></g><g></g><g></g><g></g><g></g><g></g><g></g><g></g><g></g><g></g><g></g><g></g><g></g></svg>