<?xml version="1.0" encoding="utf-8"?>
<!-- Generator: Adobe Illustrator 21.0.2, SVG Export Plug-In . SVG Version: 6.00 Build 0)  -->
<svg version="1.1" id="Layer_1" xmlns="http://www.w3.org/2000/svg" xmlns:xlink="http://www.w3.org/1999/xlink" x="0px" y="0px"
	 viewBox="0 0 500 500" style="enable-background:new 0 0 500 500;" xml:space="preserve">
<style type="text/css">
	.st0{fill:#2A4F76;stroke:#2A4F76;stroke-width:5;}
</style>
<g>
	<g>
		<path class="st0" d="M382.8,20.1L251.6,151.3c-2.7,2.7-3.7,6.6-2.6,10.3c0.7,2.3,1,4.2,1,5.9c0,11.4-9.3,20.6-20.6,20.6
			c-1.7,0-3.6-0.3-5.9-1c-3.6-1.1-7.6-0.1-10.3,2.6l-14.8,14.8c-13.3,13.3-13.3,36.5,0,49.8l0.9,0.9L80.7,373.7H66
			c-11.1,0-21.4,6-26.9,15.6L3.9,451.1c-0.9,1.6-1.4,3.4-1.4,5.2c0,2.6,1,5.3,3,7.2l30.9,30.9c3.3,3.3,8.4,4,12.4,1.7l61.8-35.3
			c9.6-5.5,15.6-15.8,15.6-26.9v-14.7l118.6-118.6l0.9,0.9c6.6,6.7,15.5,10.3,24.9,10.3c9.4,0,18.2-3.7,24.9-10.3l14.8-14.8
			c2.7-2.7,3.7-6.6,2.6-10.3c-0.7-2.3-1-4.2-1-5.9c0-11.4,9.3-20.6,20.6-20.6c1.7,0,3.6,0.3,5.9,1c3.6,1.1,7.6,0.1,10.3-2.6
			l131.2-131.2c11.2-11.2,17.6-26.7,17.6-42.5c0-15.8-6.4-31.3-17.6-42.5l-12.1-12.1C456.6,8.9,441.1,2.5,425.3,2.5
			C409.5,2.5,394,8.9,382.8,20.1z M108.6,407.7c-1.9,1.9-3,4.6-3,7.3v19c0,3.7-2,7.1-5.2,9l-55,31.4l-19.8-19.8l31.4-54.9
			c1.8-3.2,5.3-5.2,9-5.2h19c2.7,0,5.4-1.1,7.3-3l121.6-121.6l16.4,16.4L108.6,407.7z M453.2,34.7l12.1,12.1
			c14.7,14.7,14.7,41.1,0,55.8L338.1,229.8c-1.9-0.3-3.8-0.4-5.6-0.4c-24.6,0-44.8,21.3-40.8,46.8L280.9,287
			c-2.8,2.7-6.4,4.3-10.3,4.3c-3.9,0-7.6-1.5-10.3-4.3L213,239.7c-5.5-5.5-5.5-15.1,0-20.6l10.7-10.8c1.9,0.3,3.8,0.4,5.6,0.4
			c24.6,0,44.8-21.1,40.8-46.8L397.4,34.7c7.4-7.4,17.5-11.6,27.9-11.6S445.9,27.3,453.2,34.7z"/>
	</g>
</g>
</svg>
