<svg viewBox="0 0 512 512" xmlns="http://www.w3.org/2000/svg" xmlns:xlink="http://www.w3.org/1999/xlink" id="Layer_1" overflow="hidden"><g><g><path d="M493.792 393.375 358.042 257.635C355.271 254.864 351.198 253.812 347.438 254.958 345.073 255.666 343.136 256 341.334 256 329.574 256 320.001 246.427 320.001 234.667 320.001 232.865 320.334 230.927 321.043 228.573 322.178 224.813 321.158 220.729 318.376 217.948L303.095 202.677C289.355 188.917 265.345 188.906 251.585 202.667L250.668 203.584 128 80.917 128 65.709C128 54.261 121.823 43.615 111.875 37.928L47.959 1.407C46.282 0.439 44.435-0.011 42.605 0 39.864 0.016 37.162 1.083 35.125 3.125L3.125 35.125C-0.281 38.521-0.979 43.781 1.406 47.958L37.927 111.875C43.615 121.823 54.271 128 65.719 128L80.917 128 203.584 250.667 202.678 251.573C195.793 258.448 192.001 267.594 192.001 277.333 192.001 287.062 195.793 296.208 202.668 303.083L217.96 318.364C220.752 321.156 224.814 322.197 228.564 321.041 230.929 320.333 232.866 319.999 234.668 319.999 246.428 319.999 256.001 329.572 256.001 341.332 256.001 343.134 255.668 345.061 254.959 347.405 253.813 351.165 254.844 355.259 257.626 358.04L393.376 493.79C404.948 505.365 420.969 512 437.334 512 453.699 512 469.719 505.365 481.292 493.792L493.792 481.292C505.365 469.719 512 453.698 512 437.334 512 420.97 505.365 404.948 493.792 393.375ZM92.875 109.792C90.875 107.792 88.167 106.667 85.333 106.667L65.719 106.667C61.896 106.667 58.344 104.604 56.448 101.292L23.969 44.448 44.448 23.969 101.281 56.448C104.604 58.344 106.666 61.896 106.666 65.708L106.666 85.333C106.666 88.166 107.791 90.875 109.791 92.875L235.583 218.667 218.666 235.584 92.875 109.792ZM478.709 466.209 466.209 478.709C451.001 493.917 423.667 493.917 408.459 478.709L276.875 347.125C277.188 345.156 277.333 343.229 277.333 341.333 277.333 315.916 255.281 295.031 228.885 299.125L217.75 288C214.906 285.146 213.333 281.365 213.333 277.333 213.333 273.301 214.896 269.51 217.75 266.666L266.667 217.749C272.375 212.061 282.313 212.041 288 217.749L299.125 228.864C298.823 230.843 298.667 232.77 298.667 234.666 298.657 260.072 320.469 281.041 347.115 276.874L478.709 408.457C486.313 416.061 490.667 426.582 490.667 437.332 490.667 448.082 486.313 458.604 478.709 466.209Z" stroke="#4A6782" stroke-width="2.66667" fill="#4A6782"/></g></g><g></g><g></g><g></g><g></g><g></g><g></g><g></g><g></g><g></g><g></g><g></g><g></g><g></g><g></g><g></g></svg>