<?xml version="1.0" encoding="utf-8"?>
<!-- Generator: Adobe Illustrator 22.1.0, SVG Export Plug-In . SVG Version: 6.00 Build 0)  -->
<svg version="1.1" id="Capa_1" xmlns="http://www.w3.org/2000/svg" xmlns:xlink="http://www.w3.org/1999/xlink" x="0px" y="0px"
	 viewBox="0 0 513.9 508.2" style="enable-background:new 0 0 513.9 508.2;" xml:space="preserve">
<style type="text/css">
	.st0{fill:#2A4F76;stroke:#2A4F76;stroke-width:8;stroke-miterlimit:10;}
	.st1{fill:none;stroke:#2A4F76;stroke-width:8;stroke-miterlimit:10;}
</style>
<g>
	<g>
		<path class="st0" d="M38.1,163.6c-49.8,122.8,9.4,262.6,132.2,312.4c28.7,11.6,59.3,17.6,90.3,17.6c132.5,0,240-107.4,240-240
			s-107.4-240-240-240C164.6,13.6,77.8,70.9,40,159.2h0 M448.9,374.6l-12.3-12.3v-28.7c0-1.2-0.3-2.5-0.8-3.6l-31.2-62.3v-30.1
			c0-2.7-1.3-5.2-3.6-6.7l-24-16c-1.9-1.3-4.2-1.7-6.4-1.1l-29.4,7.3L291.8,200l-6.8-47.6l18.8-18.8h40.4l13.6,20.4
			c1.2,1.8,3.2,3.1,5.3,3.4l48,8c1.3,0.2,2.6,0.1,3.8-0.3l44.2-14.7C496.4,221.6,492.4,307.2,448.9,374.6z M415.9,92.5l-13,8.7
			l-36.3-7.3L343.1,86c-1.4-0.5-3-0.6-4.5-0.2l-29.7,7.4l-13-4.3l9.7-19.3h27.1c1.2,0,2.5-0.3,3.6-0.8l27.7-13.8
			C382.9,64.9,400.4,77.5,415.9,92.5z M172.9,47.5l19.2,12.8c0.9,0.6,2,1,3.1,1.2L234,68l-3.8,11.3l-20.2,6.7
			c-1.8,0.6-3.3,1.8-4.3,3.5l-23,38.3l-36.9,22.1l-54.4,7.8c-3.9,0.6-6.9,3.9-6.9,7.9v24c0,2.1,0.8,4.2,2.3,5.7l13.7,13.7v13.7
			l-33.3-22.2l-12.1-36.2C78.2,111.8,120.3,70,172.9,47.5z M150.2,309.8l-36.2-7.2l-13.4-26.8v-18.8l29.8-29.8l11,22.1
			c1.4,2.7,4.1,4.4,7.2,4.4H200l21.7,36.1c1.4,2.4,4,3.9,6.9,3.9h22.2l-5.6,28.1L214.9,352c-1.5,1.5-2.3,3.5-2.4,5.7v20l-28.8,21.6
			c-2,1.5-3.2,3.9-3.2,6.4v28.9l-10-3.3l-14-35.1v-78.5C156.6,313.8,153.9,310.5,150.2,309.8z M126.1,432.8
			C50.7,376.2,18.8,278.4,46.3,188.2l6.6,19.9c0.6,1.7,1.7,3.1,3.1,4.1L96,238.9l-9.1,9.1c-1.5,1.5-2.3,3.5-2.3,5.7v24
			c0,1.2,0.3,2.5,0.8,3.6l16,32c1.1,2.2,3.2,3.8,5.6,4.3l33.6,6.7v73.4c0,1,0.2,2,0.6,3l16,40c0.9,2.2,2.7,3.9,4.9,4.6l24,8
			c0.8,0.3,1.6,0.4,2.5,0.4c4.4,0,8-3.6,8-8v-36l28.8-21.6c2-1.5,3.2-3.9,3.2-6.4v-20.7l29.7-29.7c1.1-1.1,1.9-2.5,2.2-4.1l8-40
			c0.9-4.3-1.9-8.5-6.3-9.4c-0.5-0.1-1-0.2-1.6-0.2h-27.5l-21.7-36.1c-1.4-2.4-4-3.9-6.9-3.9h-51.1l-13.7-27.6
			c-1.2-2.3-3.3-3.9-5.9-4.3c-2.5-0.4-5.1,0.4-6.9,2.2l-10.4,10.3v-12.7c0-2.1-0.8-4.2-2.3-5.7l-13.7-13.7v-13.8l49.1-7
			c1.1-0.2,2.1-0.5,3-1.1l40-24c1.1-0.7,2.1-1.6,2.7-2.7l22.5-37.5l21.2-7.1c2.4-0.8,4.3-2.7,5.1-5.1l8-24c1.4-4.2-0.9-8.7-5.1-10.1
			c-0.4-0.1-0.8-0.2-1.2-0.3L199.6,46l-8.1-5.4c50.3-16.4,104.9-14.4,153.9,5.7l-14.6,7.3h-30.1c-3,0-5.8,1.7-7.2,4.4l-16,32
			c-2,4-0.4,8.8,3.6,10.7c0.3,0.2,0.7,0.3,1,0.4l24,8c1.4,0.5,3,0.6,4.5,0.2l29.7-7.4l21.8,7.3c0.3,0.1,0.6,0.2,1,0.3l40,8
			c2.1,0.4,4.2,0,6-1.2l18.2-12.1c9,10,17,20.7,24.1,32.2l-39.4,13.1l-42.6-7.1l-14.1-21.1c-1.5-2.2-4-3.5-6.6-3.6h-48
			c-2.1,0-4.2,0.8-5.7,2.3l-24,24c-1.8,1.8-2.6,4.3-2.3,6.8l8,56c0.4,2.8,2.2,5.1,4.8,6.2l56,24c1.6,0.7,3.4,0.8,5.1,0.4l28.6-7.1
			l17.5,11.7v27.7c0,1.2,0.3,2.5,0.8,3.6l31.2,62.3v30.1c0,2.1,0.8,4.2,2.3,5.7l16.7,16.7C365.4,487,225.1,507,126.1,432.8z"/>
	</g>
</g>
<line class="st1" x1="36.7" y1="167.1" x2="41.1" y2="156.7"/>
</svg>
