<?xml version="1.0" encoding="utf-8"?>
<!-- Svg Vector Icons : http://www.onlinewebfonts.com/icon -->
<!DOCTYPE svg PUBLIC "-//W3C//DTD SVG 1.1//EN" "http://www.w3.org/Graphics/SVG/1.1/DTD/svg11.dtd">
<svg version="1.1" xmlns="http://www.w3.org/2000/svg" xmlns:xlink="http://www.w3.org/1999/xlink" x="0px" y="0px" viewBox="0 0 1000 1000" enable-background="new 0 0 1000 1000" xml:space="preserve">
<metadata> Svg Vector Icons : http://www.onlinewebfonts.com/icon </metadata>
<g><path d="M807,524.5c-101.1,0-183,81.9-183,183c0,101.1,81.9,183,183,183c101.1,0,183-81.9,183-183C990,606.4,908.1,524.5,807,524.5z M922.3,728.3h-94.2v88.9h-42.3v-88.9h-83.2v-42.3h83.2v-88.4h42.3v88.4h94.2V728.3z"/><path d="M629.7,203.8v0.9c63,0,114.2,51.2,114.2,114.2c0,63-51.2,114.2-114.2,114.2v11.2v34.4V490c33.2,0.8,65.7,7.9,96,19.9l88.1-26c-18.7-5.5-78.1-25.4-98.5-30.1c44.7-28.4,74.3-78.3,74.3-135c0-88.2-71.7-159.9-159.9-159.9v0.3c-12.1,0.2-21.9,10.1-21.9,22.2C607.8,193.7,617.5,203.6,629.7,203.8z"/><path d="M658.8,548.1c-2.6-2.9-5.6-5.3-9-7.2c-32.3-25.2-68.1-45-106.5-59.2c-5.8-2.1-11.7-4.1-17.6-6c50.5-36.9,83.3-96.5,83.3-163.6c0-111.7-90.9-202.6-202.6-202.6c-111.7,0-202.6,90.9-202.6,202.6c0,67.1,32.8,126.7,83.3,163.6c-11.8,3.7-23.6,8-35.1,12.9c-47.2,20-89.6,48.6-126,85c-36.4,36.4-65,78.8-85,126C20.5,748.6,10,800.5,10,854.1h0.3c0,18.9,15.3,34.2,34.2,34.2c18.9,0,34.2-15.3,34.2-34.2c0-1.4-0.1-2.7-0.3-4.1c2.2-179,148.5-324,328-324c76.3,0,150.7,26.8,209.3,75.4l0.6-0.7c31.1-37.5,46.1-49.8,46.1-49.8 M406.5,178c74,0,134.1,60.2,134.1,134.1c0,74-60.2,134.1-134.1,134.1s-134.1-60.2-134.1-134.1C272.4,238.2,332.6,178,406.5,178z"/></g>
</svg>